<svg width="40" height="40" viewBox="0 0 40 40" fill="none" xmlns="http://www.w3.org/2000/svg">
<path d="M20 0C31.0457 0 40 8.95431 40 20C40 31.0457 31.0457 40 20 40C8.95431 40 0 31.0457 0 20C0 8.95431 8.95431 0 20 0Z" stroke="#E5E7EB"/>
<path d="M36.7302 11.362H32.0635C31.3651 11.362 30.7936 10.7808 30.7936 10.0705V5.29159C30.7936 4.58121 30.2222 4 29.5238 4H10.4762C9.77778 4 9.20635 4.58121 9.20635 5.29159V9.94129V9.97358V10.0382C9.20635 10.7485 8.63492 11.3297 7.93651 11.3297H7.84127C7.84127 11.3297 7.84127 11.3297 7.80952 11.3297H3.26984C2.57143 11.3297 2 11.911 2 12.6213V28.3464C2 29.0568 2.57143 29.638 3.26984 29.638H6.44444H7.90476C8.60317 29.638 9.1746 30.2192 9.1746 30.9296V32.318V35.7084C9.1746 36.4188 9.74603 37 10.4444 37H29.4921C30.1905 37 30.7619 36.4188 30.7619 35.7084V31.0264C30.7619 30.316 30.1905 29.7348 29.4921 29.7348H10.4444C10.4444 29.7348 10.4444 29.7348 10.4127 29.7348H10.3492C9.65079 29.7348 9.07936 29.1536 9.07936 28.4432V28.3141V13.9129V12.5245C9.07936 11.8141 9.65079 11.2329 10.3492 11.2329H10.4762H29.619C30.3175 11.2329 30.8889 11.8141 30.8889 12.5245V28.3787C30.8889 29.089 31.4603 29.6703 32.1587 29.6703H36.7302C37.4286 29.6703 38 29.089 38 28.3787V12.6213C38 11.911 37.4286 11.362 36.7302 11.362Z" fill="#1D1D1B"/>
</svg>
